
<global>
amp_veltrack=0
</global>

<group>
group_label=PP
lpc_hicc1=42
lpc_locc1=0

<region>
hikey=a3
hivel=127
lokey=g#3
lovel=1
lpc=PFlSQRVKFsJLCkNCAGwXwjgbmUFg5s7ATMyqP/4tJsAiy7tAF5ClwCTIUT8fNwJAJlq2v50uE79P+1tAXT+4wO5w0kBedL7A9uieQPNYtr9u1JXA2n/jQAE3h8BTl4I/
lpc_rms=-30.18
pitch_keycenter=a3
sample=Violin2Solo_trill_maj3rd_PP_A3.opus
</region>

<region>
hikey=a4
hivel=127
lokey=g#4
lovel=1
lpc=nVneQPgSgcEepJZBruGBwdRLT0ESHAzBvYh8QCvN8r8TXQ1Ak5MFwJPkhj9AYl+/JQDOP+SEC8CpszFARNouwCHbBkBguJS/6LStP+A4CL9P1H+/hBo/P7gICj8oOqG+
lpc_rms=-28.65
pitch_keycenter=a4
sample=Violin2Solo_trill_maj3rd_PP_A4.opus
</region>

<region>
hikey=a5
hivel=127
lokey=g#5
lovel=1
lpc=XJa5QOazLMH/qi1BSe4Bwbzn/kCdTeDAecGiQD2lS8D7vHRAWCU+wMt2HUCSIRHACcUuQLLi6r9acRBA/worwBiPW0BhxSfAhW9FQDfdMcAuZy9A3A1gwBL1eUCCf8S/
lpc_rms=-31.10
pitch_keycenter=a5
sample=Violin2Solo_trill_maj3rd_PP_A5.opus
</region>

<region>
hikey=a6
hivel=127
lokey=g#6
lovel=1
lpc=yboaQaqaMMGI/ClB9jeEwJv2vj8najVAJ2JLvktExD57D5RAtwLVv86NNL5VXim/nWunQEbsFMGoXctAghWKvJ9MVMDUkZ9ARd9AwJ8Vij5kMvM/WKgXwFFiTb/JoHNA
lpc_rms=-28.50
pitch_keycenter=a6
sample=Violin2Solo_trill_maj3rd_PP_A6.opus
</region>

<region>
hikey=b3
hivel=127
lokey=a#3
lovel=1
lpc=oiMoQak468HWPhhCDQTuwRcGcUHmTsnAvm2SQF0NxMCHUNZAzoRxwPL4u7+8PIdA0C0KwAVf+L8lI69AeVnKwCmqukCKZKvAzcWQQP6SHMBpIvO/RVOhQLBUkMA5R+A/
lpc_rms=-30.42
pitch_keycenter=b3
sample=Violin2Solo_trill_maj3rd_PP_B3.opus
</region>

<region>
hikey=b4
hivel=127
lokey=a#4
lovel=1
lpc=qcOWQMnlJ8Hl+kBBy+8ZwYiz5kBiGa7AaGpjQBSQFcBffBRA7im6v/l8pz13bFw/e/qwvh2qsL0JkTE/qnKnvwLpAEAtdxDAHMjnP8/Oub6UKIi/lcaqP+vSDr8geaM9
lpc_rms=-32.80
pitch_keycenter=b4
sample=Violin2Solo_trill_maj3rd_PP_B4.opus
</region>

<region>
hikey=b5
hivel=127
lokey=a#5
lovel=1
lpc=M5mRQF9D2sBArdhAhQGWwAcTdkBTNcu/WPiSP0x+eT0uQJa+T1aDPzjlj7w/lQe/nyUMQAivHsDk80NANFjKvyZfvj8M1cq9gobFPV82ub67ti8/IrbKvev0hD9QKoS/
lpc_rms=-28.55
pitch_keycenter=b5
sample=Violin2Solo_trill_maj3rd_PP_B5.opus
</region>

<region>
hikey=C7
hivel=127
lokey=a#6
lovel=1
lpc=Kbf0QG9zEsHenvBACUeEwEZsRUBfr3q/JanWP1SZ0z7JTPk9o8T9v/9/Yj5TeMw/a168wG0WwkAAVWvAHHy/P8ZnX7+HC5++DLONPkySB8DDcrc/jbOpP8yyEz/Gw8+/
lpc_rms=-33.43
pitch_keycenter=B6
sample=Violin2Solo_trill_maj3rd_PP_B6.opus
</region>

<region>
hikey=c#4
hivel=127
lokey=c4
lovel=1
lpc=STe4QfXmh8K0q7BCGnSDwsXtAEIb3o/BU32IQXmtjMEb/WFBy8XIwMJ4P8CyaPNAdkybwLYTkb2c7NVAO1ZLwYgGgkHPpHPBpPI+QRWBB8EgbiRAyN1YQBPWkcAR49I/
lpc_rms=-25.85
pitch_keycenter=c#4
sample=Violin2Solo_trill_maj3rd_PP_C#4.opus
</region>

<region>
hikey=c#5
hivel=127
lokey=c5
lovel=1
lpc=BU8TQb7sqsEbUsRB9K2ZwTxPTEH9+vDAAU5HQBk/er8J86Y+OCHRvr+vbr57WnI/xOoSP070OsCEcZFAJB+iwFQ2u0B2fL7A9NKqQNZUD8CydtG++PWcvunX6j/Py0W/
lpc_rms=-26.16
pitch_keycenter=c#5
sample=Violin2Solo_trill_maj3rd_PP_C#5.opus
</region>

<region>
hikey=c#6
hivel=127
lokey=c6
lovel=1
lpc=tTnRQEjwFcGZvgJBQDWkwOIZrkAD8EbABvQmQKwkHL8cJuE//wHjvqqDsj9YU7I99tTRP0nHob99YzRA+wK9vxjKNkAPESzABGWCQPlbGMAgD2VATYq+wIiFoUBAzjS/
lpc_rms=-28.11
pitch_keycenter=c#6
sample=Violin2Solo_trill_maj3rd_PP_C#6.opus
</region>

<region>
hikey=d#4
hivel=127
lokey=d4
lovel=1
lpc=6EIOQRfWv8F2outB+2+wwQ3xTkFOxPPAMfVgQBGoxb+K7UZAeqGYwD6ZO0CZumK+++6lvrtKlr/5RCtARmBgwAsAiEDMOXDApisqQFwqn78d2GK/G7cdQC8p6b/T8wE/
lpc_rms=-31.14
pitch_keycenter=d#4
sample=Violin2Solo_trill_maj3rd_PP_D#4.opus
</region>

<region>
hikey=d#5
hivel=127
lokey=d5
lovel=1
lpc=OlWPQOkZEcExNBNBi8XRwBfkskB8q5LA9SE5QLYYC8B6YQVAiXMqvz2jAr89wZQ/7LjovmkifL/HaRlAP9r4v2xy2j/71SjAig88QC9Xxr+D84o/4TWkv7+qUD95DT0+
lpc_rms=-33.41
pitch_keycenter=d#5
sample=Violin2Solo_trill_maj3rd_PP_D#5.opus
</region>

<region>
hikey=d#6
hivel=127
lokey=d6
lovel=1
lpc=nwaiQD0g78BBwcVAxAbKvyeoGUDpIAjAhVoZQLC38j6WiSY9ZC+wP4ftxD7L2vQ+7DqEP5AxcT1sLvA/lDD2v2wSV0Col5C/mRRQP1l0LMBoK5xAxKsJwNUvCr8CuIc/
lpc_rms=-30.10
pitch_keycenter=d#6
sample=Violin2Solo_trill_maj3rd_PP_D#6.opus
</region>

<region>
hikey=f4
hivel=127
lokey=e4
lovel=1
lpc=Dc/xQDA/nsET9MJB6mOWwddFOEHw0/nAqQmpQA3vZ8C3WUZA3CIDwHoEET+7cS8+6+HuvgMBJT7TSLQ/0IY2wKHtWECQ2xjA4BynP7we3L7HN56/L2I1QO/vQMB+9aw/
lpc_rms=-32.38
pitch_keycenter=f4
sample=Violin2Solo_trill_maj3rd_PP_F4.opus
</region>

<region>
hikey=f5
hivel=127
lokey=e5
lovel=1
lpc=1F27QIPcP8E64kxB/4ohwQGHA0HkQKHACkzYP/zcrr2ifmw/COrivoa9hL7gngY+/2g7vZZUAT/fmmg+Q1iKv9OEHEDq6A7AWacdQO1r9b9D0QA/ozO7PqH5pD6CY5+9
lpc_rms=-29.72
pitch_keycenter=f5
sample=Violin2Solo_trill_maj3rd_PP_F5.opus
</region>

<region>
hikey=f6
hivel=127
lokey=e6
lovel=1
lpc=iXyZQDGmxsBUrLlAb+UBwIZvCUA1zVG/5ToqQPK1PL9an8o/cutRP/55qT+qSlM/hzrsP2Uayr8GoNU/9YnQPxFl4b2wrZy/C6BnQMj2HMCHP80/1f+gvojFUD9v6Km+
lpc_rms=-30.84
pitch_keycenter=f6
sample=Violin2Solo_trill_maj3rd_PP_F6.opus
</region>

<region>
hivel=127
key=g3
lovel=1
lpc=4ioeQdu/1sEFwQVCAFXLwUKrYEFU/AXB0YvOQM5Bp8B5EGtAWoH3v0fvoT+OnXG/tMDEPXN3vj1qLCNAMU25wFE56EDHBb/A+zB1QBGJJ8BjkLK+YlCSQCbHusBhoSlA
lpc_rms=-31.64
sample=Violin2Solo_trill_maj3rd_PP_G3.opus
</region>

<region>
hikey=g4
hivel=127
lokey=f#4
lovel=1
lpc=REDXQCzah8Fk76BBhSZxwUHZEUE/0cbAI9eEQKgrO8AHZ1RAPYEmwNi+oT+Sixm/mmaDPelhFr7pvdo/wx+AwDoVlEC7Z1vA3joWQM6ViL889SW/9GPBP5HzS787QLc9
lpc_rms=-32.97
pitch_keycenter=g4
sample=Violin2Solo_trill_maj3rd_PP_G4.opus
</region>

<region>
hikey=g5
hivel=127
lokey=f#5
lovel=1
lpc=uy6oQER+JcFv+i1BzkwKwTfs70DXvKvAAbCQQKtImsD4EZ9AlQJCwM+wAkARzs6+qnsjv7DuVD8Z7Gc/93uGv7DDkj+jY6O/kJeNP2S8ij/alf+/KB8WQO14AsDrkpU/
lpc_rms=-33.03
pitch_keycenter=g5
sample=Violin2Solo_trill_maj3rd_PP_G5.opus
</region>

<region>
hikey=g6
hivel=127
lokey=f#6
lovel=1
lpc=WBfZQE5ABMHrkANBzQknwLOVuz+e3Mw/gLmPP+NyjL5VtRBAM6aZPz+bnz4KYCQ/7e8Rv9iUeT+8qgM/7GydwCm9uEB/057AOY2bP5DA0Dx1HMm/1xaAv+Vkxz/6sjTA
lpc_rms=-29.72
pitch_keycenter=g6
sample=Violin2Solo_trill_maj3rd_PP_G6.opus
</region>
</group>

<group>
group_label=MF
lpc_hicc1=84
lpc_locc1=43

<region>
hikey=a3
hivel=127
lokey=g#3
lovel=1
lpc=casJQS/HwMEaOf5BRafMwfMEV0FV95/A0CsDQIXuCcBm2C1AE+bgv89k1b+rRJtA6dmtwFavcEBNw6K+qBZ9wFJexkARba7A0QhfQHeqZr9GNt2/Y649QAx2AMCPEQ8/
lpc_rms=-25.29
pitch_keycenter=a3
sample=Violin2Solo_trill_maj3rd_MF_A3.opus
</region>

<region>
hikey=a4
hivel=127
lokey=g#4
lovel=1
lpc=i5TVQCjShsFRkZ1B9TRiweolB0Fbe8jA9fKQQItcA8DMGVA/p2yQv6xWKz94m4A/3Xr2v+8S3T90p7++RYWQv7WuDkChVCTARCD3PxPqkr5Xf52/w7GsPyX4sL58a8y9
lpc_rms=-26.19
pitch_keycenter=a4
sample=Violin2Solo_trill_maj3rd_MF_A4.opus
</region>

<region>
hikey=a5
hivel=127
lokey=g#5
lovel=1
lpc=w2+AQF0jysDvhLhAsEQtwAo/pT+txpq+tn1dPyUnSr+LuIs/GZAgPuwU8b7FAHE/yDAOP/zWmr9Kb8w/dw/avQBpCL485C8/qqp4PljFxr1uUzU+7zgmP78oVb/rqjc/
lpc_rms=-19.63
pitch_keycenter=a5
sample=Violin2Solo_trill_maj3rd_MF_A5.opus
</region>

<region>
hikey=a6
hivel=127
lokey=g#6
lovel=1
lpc=4jTtQP3D0MBhbfBA+y1Xv6hMID9cy2lA1HpVP+UJBD/xf5tA9v8dv6yWnD++Ml+/sICGQAJvvcDo4u0/nk6JPxGRccB4d/M/PPsjvyfHPMCFtARAv/4pwEX13L8Soso/
lpc_rms=-21.95
pitch_keycenter=a6
sample=Violin2Solo_trill_maj3rd_MF_A6.opus
</region>

<region>
hikey=b3
hivel=127
lokey=a#3
lovel=1
lpc=n3k3QRlB+cG42hlCyLjmweLQY0FTic3AOBGZQCGagcCLHR9ApO0Ev6U/579iVU1AVP8cwJcPbD/HOiRA3+XhwKZUCEFnTLrAdQpAQPhkBMCuP6I+hkfoP/RoHcDSGZ8/
lpc_rms=-22.50
pitch_keycenter=b3
sample=Violin2Solo_trill_maj3rd_MF_B3.opus
</region>

<region>
hikey=b4
hivel=127
lokey=a#4
lovel=1
lpc=dPmcQDa9LcEOzjtBZGoHwc/XsEDgq3DAaSAGQGcNqr/bkAlA5/sewH513j8pC+e+bKlCPh8K8L7EB4k/szDWv+/IBUBAQLC/jVulPs5usz7AiD2/6TEoP2/j4buIHBu9
lpc_rms=-26.56
pitch_keycenter=b4
sample=Violin2Solo_trill_maj3rd_MF_B4.opus
</region>

<region>
hikey=b5
hivel=127
lokey=a#5
lovel=1
lpc=sp26QA32CMFlyg1BxTePwIqVGECfOlM/JLZDvlFp9z5DYKM/Pe8xv34g2z8ThKi9X9lUP8tdlL2qgqU/rOMRv/9fCkCuS4C+1KcEPzyz0D+hNS7AN2N4QIfyw78cUYg+
lpc_rms=-20.58
pitch_keycenter=b5
sample=Violin2Solo_trill_maj3rd_MF_B5.opus
</region>

<region>
hikey=C7
hivel=127
lokey=a#6
lovel=1
lpc=5z7EQMXZw8BkQdFAJnwGwN79mj+a3rU/wfAcPw2Aez4yYxpA3fRSwLZEqj+4mwM/+AGpwG0dlED5Z4HAUMyRP72/0b4s5FK/JL0Qv63jqrwHJZ+/jxIdQNn+/L6CX0Y+
lpc_rms=-27.19
pitch_keycenter=B6
sample=Violin2Solo_trill_maj3rd_MF_B6.opus
</region>

<region>
hikey=c#4
hivel=127
lokey=c4
lovel=1
lpc=jbqCQRU5NsJIY2hCec82wuHpwkGOYyrBVwqjQBJifMBTCoBAjMtiwPpa3j7CDZZAxIS7wKujOEBf7tU/hnWswJq1CkHoUSDB6sH8QGfbFcCbomrAa1CqQNhkTsCyf1w/
lpc_rms=-17.84
pitch_keycenter=c#4
sample=Violin2Solo_trill_maj3rd_MF_C#4.opus
</region>

<region>
hikey=c#5
hivel=127
lokey=c5
lovel=1
lpc=XU3GQMmdVMFzVVxBerEhwXvy4EA/KqbA5VQsQAErQr+z8S0/+dUCvwB4570lSEk/r8dKv3O7zT7E+L0/omZcwEr2hUB56l/A4XUKQF14fb9arl89mjS7Pl9Vvb3lxZU+
lpc_rms=-23.30
pitch_keycenter=c#5
sample=Violin2Solo_trill_maj3rd_MF_C#5.opus
</region>

<region>
hikey=c#6
hivel=127
lokey=c6
lovel=1
lpc=sWabQPiOusCZo7hA2mItwFRjYkDI/p6/DYcOQOCvFr+EBQtAnBOwvnrh1j9HnB298nskQIk8sr+QU0tAH4acv0FzMkDyCdq/fshKQFx/oL+2RDVA7JNcwMYXOkAY7gi+
lpc_rms=-22.06
pitch_keycenter=c#6
sample=Violin2Solo_trill_maj3rd_MF_C#6.opus
</region>

<region>
hikey=d#4
hivel=127
lokey=d4
lovel=1
lpc=H48CQcuurcFtbtJBHa+awU74I0Gy6LXAO7qMQFIUVsCuaw5AuROmv2r1gT1EvMg/sb1MwOY8O0Adw+Q+rC2TwEf3wUAZLorAIl4EQNKQm77UXJi/jBnsPzjqjL9uUmU+
lpc_rms=-23.79
pitch_keycenter=d#4
sample=Violin2Solo_trill_maj3rd_MF_D#4.opus
</region>

<region>
hikey=d#5
hivel=127
lokey=d5
lovel=1
lpc=IxGeQJr9KcFocDRBCYLywNW+nEBpSjvA5NA7P4Yypj6hYBe+XPStPxoxJ8AGJyhA6CSdvzeLVL4xpeY/5AskwNteOUCAvS/ANvMbQHBq678bE54/N9TTPbl+P79v1Do/
lpc_rms=-22.98
pitch_keycenter=d#5
sample=Violin2Solo_trill_maj3rd_MF_D#5.opus
</region>

<region>
hikey=d#6
hivel=127
lokey=d6
lovel=1
lpc=nWimQLur2sC19bZAZQFsv9fUtj//+my/vwY1QE6e1L5Bl+Y/hwYyPvCe2j94Xjc+nnLaP7WyBr20DBlA5w++v4y8R0A6vVS+1UnLPs7HBsA7CpZAgzkXwLCFsj6qtWo/
lpc_rms=-22.46
pitch_keycenter=d#6
sample=Violin2Solo_trill_maj3rd_MF_D#6.opus
</region>

<region>
hikey=f4
hivel=127
lokey=e4
lovel=1
lpc=Ip74QK2BpcHk7c1B7CChwYLpOkGFYNPAiC+YQBu7gcBx2kRAQBiLv/kKsb9GVTZAgJQ7wEmz/T+qUCs/wnd/wNcAsUCEfY3AvUoiQPooR79Nex2/E3R1Py8hI7+mvo8+
lpc_rms=-24.30
pitch_keycenter=f4
sample=Violin2Solo_trill_maj3rd_MF_F4.opus
</region>

<region>
hikey=f5
hivel=127
lokey=e5
lovel=1
lpc=Kx66QNGNNcHTMDVBmwv4wCfEvkAyzWjA2jvAP7Iddr/UugNAeafNvxsHLD9Ug+89JdXKPeN+fb+4AClAVq8lwDNoIUD3fb6/txqOP5SNkr4nCCM/1S66v8VQ6z8dl/q+
lpc_rms=-22.58
pitch_keycenter=f5
sample=Violin2Solo_trill_maj3rd_MF_F5.opus
</region>

<region>
hikey=f6
hivel=127
lokey=e6
lovel=1
lpc=KdugQOukycCX7r9AmpVlv8UvrT98ybc+uUobQP2lTr6whw9AC8qzPwf2vT+ks4c/I908QF43fL8IXypAbzOiP/5mqj+vJh/A0qO6QLIHM8B0YL8/5DEXP9aqOT7sWUM/
lpc_rms=-23.99
pitch_keycenter=f6
sample=Violin2Solo_trill_maj3rd_MF_F6.opus
</region>

<region>
hivel=127
key=g3
lovel=1
lpc=cmUNQc9ZwcGOWvlBn73KwVKjcUFA/wHBj3aCQC4u+7+oRd4//UbavwCQDD/pGp0/D6LEvxf3AD/Ngrg/7cBOwFXSfkBpKkfAHPvCP1wAir6nwtu/ZcNgQGXKTMBuopc/
lpc_rms=-26.86
sample=Violin2Solo_trill_maj3rd_MF_G3.opus
</region>

<region>
hikey=g4
hivel=127
lokey=f#4
lovel=1
lpc=AAH4QN2pp8FNB99B8rPHwWioh0F9uhvBWoyzQFrcmsAZmbtAZNaWwDMFA0BvYEO+eEcKvwJKtT3mlAdAFkOgwGSUykByf6rANMtzQCV7879DTVO/WmYZQHTE27+FgeQ+
lpc_rms=-24.37
pitch_keycenter=g4
sample=Violin2Solo_trill_maj3rd_MF_G4.opus
</region>

<region>
hikey=g5
hivel=127
lokey=f#5
lovel=1
lpc=EC96QDNQx8DO/7xA8SN1wN7hJUAclau/wCyePyhEJ79DjQA/H1aePur1F7+72UI/c9NpPn5XvL2Ngo0+r7dhuyKKHj+VZAm+ntooPlvKuT3/qtO+ajGTP4EXPr+ojtI9
lpc_rms=-24.43
pitch_keycenter=g5
sample=Violin2Solo_trill_maj3rd_MF_G5.opus
</region>

<region>
hikey=g6
hivel=127
lokey=f#6
lovel=1
lpc=Tf3DQCIAzMB0dctAsIFDviEmkz2EIB5AxZ4uQAPIwr+iiZBA0+ozP7gzrj8PXdA/kipAPrLTzD8U9b0/rjaNwEA8sUC46ifAL5n3vqSO6j8OoXW/5VoPwJoISEAPCkrA
lpc_rms=-22.44
pitch_keycenter=g6
sample=Violin2Solo_trill_maj3rd_MF_G6.opus
</region>
</group>

<group>
group_label=FF
lpc_hicc1=127
lpc_locc1=85

<region>
hikey=a3
hivel=127
lokey=g#3
lovel=1
lpc=T+FOQdQaFcLb3UdCmDUlwg7CwUEsXFPBM74GQXVi0MBTfLxAijahwIC17j+PD/w/xC1VwOnL6D+vLeE/IlydwKLpw0AREKHAz5ZaQBq6o75pQmbAvg+bQJhPMMDlHwY/
lpc_rms=-17.38
pitch_keycenter=a3
sample=Violin2Solo_trill_maj3rd_FF_A3.opus
</region>

<region>
hikey=a4
hivel=127
lokey=g#4
lovel=1
lpc=gLTUQBQZbcF4IXtBq74zwVOq6EA281/AjLGGvmzz8T4STbQ/YZa0v+R9Fb6ePhA/b7UjvQh7Fr6Ipwg/3NZwv29vuD//U2y/kHoRP0egsr17eHW+Joa/vZUZyT6owO88
lpc_rms=-19.38
pitch_keycenter=a4
sample=Violin2Solo_trill_maj3rd_FF_A4.opus
</region>

<region>
hikey=a5
hivel=127
lokey=g#5
lovel=1
lpc=xeBhQA/zosC4Yo5APiAZwNGc8D9KSIi/EIRzP8sXtb6BCnY/xFLbvgCt0z4urT0+4ahPP7kiZb/JYZA/mXugPTmaRD7U0vm9lShFP2H3JL5QkRA/Mt+OvzXSiz9iF0E+
lpc_rms=-18.45
pitch_keycenter=a5
sample=Violin2Solo_trill_maj3rd_FF_A5.opus
</region>

<region>
hikey=a6
hivel=127
lokey=g#6
lovel=1
lpc=7q8AQcgx3sDW7QBBteEav44MJz9bLpJAWxSEPks08j+o3J1A3W6Ovrln0T8tAbq+VkWdQEVkzsCREkpA2tM/PycQV8AbUhxA4NaHv04+IcAY8yxARQh5wFNOH791BLc/
lpc_rms=-18.74
pitch_keycenter=a6
sample=Violin2Solo_trill_maj3rd_FF_A6.opus
</region>

<region>
hikey=b3
hivel=127
lokey=a#3
lovel=1
lpc=gxoZQQ8p18GYagxCHdXgwdcBcUGStr/AsIwmQMq+O8BnF3hAycIHwFEi87//pXpAL+k1wCv4KT999xNAWV+lwLACyUAe953AyBU1QD7dGb97uh7AfTNsQHtoD8A9URs/
lpc_rms=-22.58
pitch_keycenter=b3
sample=Violin2Solo_trill_maj3rd_FF_B3.opus
</region>

<region>
hikey=b4
hivel=127
lokey=a#4
lovel=1
lpc=y6iNQCe8EsF++hVBr//MwM40jUANZ0TAXZycP0ZanL8qOSZAWgv5v8+uDj9VCZk9FObmPsPSYr+Y2bo//Oj2v23lBUCfOdq/NhA4PycqWD9XZci/wqGyP9TnGL/HhBY+
lpc_rms=-23.22
pitch_keycenter=b4
sample=Violin2Solo_trill_maj3rd_FF_B4.opus
</region>

<region>
hikey=b5
hivel=127
lokey=a#5
lovel=1
lpc=pjuSQIV/1MAh17tAZOE4wJvFBEBnQzG/Hy65PyU5Ur/A+30/cJxnvrPzaj884Ty/fPTtPyxTwr99f/g/x+A3vwHxtz83BSa/svOhPwiJ8b9pwgVAjYfNvhn6ED9vXga/
lpc_rms=-19.11
pitch_keycenter=b5
sample=Violin2Solo_trill_maj3rd_FF_B5.opus
</region>

<region>
hikey=C7
hivel=127
lokey=a#6
lovel=1
lpc=K5rHQDxNdcBklbpAZnPzv8KFMkD9i7s/igTNP/ud+T/oNBtANoLYv7XR7j/9NLI+ailhwDi+fUAzAjrA7m4JQKdjNL+71mC+YlISPgA9X7+Nq/m8FgUCQKJv1D7qGlI+
lpc_rms=-23.04
pitch_keycenter=B6
sample=Violin2Solo_trill_maj3rd_FF_B6.opus
</region>

<region>
hikey=c#4
hivel=127
lokey=c4
lovel=1
lpc=FNBzQfkqKcLkdVZC/EQpwiRpu0G4iizBLOO9QHjU6MC36ARBzjKSwDL7Vr+QkYFAhMFawBzF2T5j/05A6r+mwAlC2kBnkuDAFo6uQCP8HcBmlfi/+7uAQKigO8CtHHs/
lpc_rms=-17.84
pitch_keycenter=c#4
sample=Violin2Solo_trill_maj3rd_FF_C#4.opus
</region>

<region>
hikey=c#5
hivel=127
lokey=c5
lovel=1
lpc=lpD7QCANi8FW+opBxyQ2wWiX40BsTVzAsVGgvxEg+z9OZKE/Yk0HwBpohD9ywzy/PwpXP9dm2L9FbHBA6CyPwIKplUAW92rAPAutP3wliT/wm9q/R9RfP8NiM7+JalY/
lpc_rms=-18.69
pitch_keycenter=c#5
sample=Violin2Solo_trill_maj3rd_FF_C#5.opus
</region>

<region>
hikey=c#6
hivel=127
lokey=c6
lovel=1
lpc=1eiRQADIusCDebRABKotwCGQN0D0Hhu/XDbXP04UU79/fxxAN+Q3v38fwD9jgqG4lDgHQOxpnL9PrB9AqWEWv7Ec8D/Q7sC/YWNiQJWRAsAoQDFAeMU2wNVvC0BgQic9
lpc_rms=-19.12
pitch_keycenter=c#6
sample=Violin2Solo_trill_maj3rd_FF_C#6.opus
</region>

<region>
hikey=d#4
hivel=127
lokey=d4
lovel=1
lpc=7hIUQTEG0cG7VAlCrHDgweiphkETLRfBjJ/EQCAsd8AuMrw/1/KgPjgLsr/1GxRAYnM5wErWpj/keBlAVQvVwGG7FkHIxQvBZC6xQFYPAMA6SUY9sF8SP/cgGL8SRJU+
lpc_rms=-21.16
pitch_keycenter=d#4
sample=Violin2Solo_trill_maj3rd_FF_D#4.opus
</region>

<region>
hikey=d#5
hivel=127
lokey=d5
lovel=1
lpc=8eSOQHihFcEz8x5BDTjowPPJq0B2eGTAilGRP3osSz1ntbY+OfQpPgeTTb/X+yY/3WSkvu0qbT6YzO8+4jJ+v7MIoT8d5Y6/BbqUP6Y0CL9cAqy+pKudP45jgL+/0Po+
lpc_rms=-22.72
pitch_keycenter=d#5
sample=Violin2Solo_trill_maj3rd_FF_D#5.opus
</region>

<region>
hikey=d#6
hivel=127
lokey=d6
lovel=1
lpc=XOt1QCWCpsBHgo1A5WG1v1zKIkBpEfS/0q7dP4HkkD4+pxs/AqQpP4R8/D5ZcD87MvfGP5+DNL9WcgpAijwPwErMHUCuOsC+4xI8P0uF6r/NcdA/GgVbP7r7w793LjI/
lpc_rms=-23.16
pitch_keycenter=d#6
sample=Violin2Solo_trill_maj3rd_FF_D#6.opus
</region>

<region>
hikey=f4
hivel=127
lokey=e4
lovel=1
lpc=rG75QONBp8HhZtRBWpWswSTPTkE/L9PAUht2QC1hfcAfzHxAGfLPv12/kb8wYgtAjYr/v3BowT8uanM+ySY+wGWOk0AuPoPA2zAUQPjvVj6bwvS/qD7HP+D9Bb/oHRo+
lpc_rms=-23.28
pitch_keycenter=f4
sample=Violin2Solo_trill_maj3rd_FF_F4.opus
</region>

<region>
hikey=f5
hivel=127
lokey=e5
lovel=1
lpc=GN9pQMBRvsBH3KdAyls0wCWe4T9OP3m/nHxXP2+o/L72Kfo+0EZgvVrTpz7cVjm/mF6ePyKDsb80Mq4/FoZTvoAui74tKIM/o+7Qvgo/Zj5Ek1c+Mo4OvztqVD+wDuG9
lpc_rms=-20.58
pitch_keycenter=f5
sample=Violin2Solo_trill_maj3rd_FF_F5.opus
</region>

<region>
hikey=f6
hivel=127
lokey=e6
lovel=1
lpc=eXJ9QCeJgMDtdmtAKsECv697FECE8BG/07wFQDUdUj0TpB1A+juSPhbB5z8ohFU/CDgEQGQd2z2GMr4/FQ7WP7Uryz77Boa/SIBRQO2YYb8zhnw/dPlWPMx/GD+s8Rs/
lpc_rms=-21.93
pitch_keycenter=f6
sample=Violin2Solo_trill_maj3rd_FF_F6.opus
</region>

<region>
hivel=127
key=g3
lovel=1
lpc=9eweQZ+C2cFwSAlCi0/WwTeedkHR5RHBlyjlQBX+zsBtOo5AgznJv8v3Gj+/ILC+ZeVVvUPqNb83VBFAy40pwIv4QUCHjjLAAiHWP6w1ub92Rw2+H/hkQC+5nsCJRRJA
lpc_rms=-22.17
sample=Violin2Solo_trill_maj3rd_FF_G3.opus
</region>

<region>
hikey=g4
hivel=127
lokey=f#4
lovel=1
lpc=wnS/QMGMasHt4IdB5GtLwX22CkGrl+bA0VWjQKX8HMCUorc/74uTv93AhD9jl96+xNmivYdjR79uzUFAiiibwOF/oUBTtYHAqXM/QCwDAcB9n1c/HHUTPhnMkL78IVk9
lpc_rms=-25.83
pitch_keycenter=g4
sample=Violin2Solo_trill_maj3rd_FF_G4.opus
</region>

<region>
hikey=g5
hivel=127
lokey=f#5
lovel=1
lpc=Jxk4QJiOd8DJ+VBAOFPdv5eRpT8YKfi+tj5vPxMyfL8GtlM/jYwvPr1por0X2Xo+wFgrP4o1X7/VH4M/Hd2PvnatpT6OV/W90EcgP+DxCjwuIxq+oVYLPzz4rr6lRYM9
lpc_rms=-20.83
pitch_keycenter=g5
sample=Violin2Solo_trill_maj3rd_FF_G5.opus
</region>

<region>
hikey=g6
hivel=127
lokey=f#6
lovel=1
lpc=5WqpQGDgqMBUr6JA72JUvsFlQT/1grA/s+IKQGxGib+/12JAlqbYPm+wpj8vY0Y/PQ09PhfcbD/JZGU/FnJzwJ+WlkC4mT/AgzeSPjyuij5s1Qq/YHDMv20F8j/aNCPA
lpc_rms=-23.27
pitch_keycenter=g6
sample=Violin2Solo_trill_maj3rd_FF_G6.opus
</region>
</group>